<svg width="41" height="33" viewBox="0 0 41 33" fill="none" xmlns="http://www.w3.org/2000/svg">
<g clip-path="url(#clip0_1_51472)">
<path d="M23.5567 0.796875C22.311 0.796875 21.1077 0.956679 19.9559 1.23406C18.786 0.960738 17.5742 0.801254 16.3229 0.801254C7.50373 0.801254 0.328125 7.97711 0.328125 16.7969C0.328125 25.6167 7.50429 32.7925 16.3237 32.7925C17.5749 32.7925 18.788 32.6343 19.9567 32.3597C21.1097 32.6371 22.3146 32.7969 23.5575 32.7969C32.3799 32.7969 39.5571 25.6195 39.5571 16.7973C39.5571 7.97501 32.3797 0.797628 23.5575 0.797628L23.5567 0.796875ZM3.12984 16.7965C3.12984 9.5225 9.04918 3.60292 16.3234 3.60292C23.5976 3.60292 29.517 9.52225 29.517 16.7965C29.517 24.0708 23.5976 29.9901 16.3234 29.9901C9.04918 29.9901 3.12984 24.0708 3.12984 16.7965ZM25.5717 29.8244C29.6472 26.9213 32.3191 22.1691 32.3191 16.7965C32.3191 11.4239 29.6475 6.67155 25.5717 3.77024C31.8929 4.74407 36.7542 10.2065 36.7542 16.7965C36.7542 23.3865 31.8926 28.8493 25.5717 29.8244Z" fill="#111111"/>
<path d="M20.6429 15.4406H12.2889C12.4837 14.9797 12.7736 14.5719 13.1295 14.2316C13.2808 14.0859 13.4419 13.9514 13.6114 13.8379C13.6521 13.8097 13.6968 13.7903 13.7374 13.765C13.8816 13.6768 14.0289 13.5983 14.1802 13.5323C14.2418 13.5042 14.3063 13.4804 14.3707 13.4567C14.5192 13.4019 14.669 13.3572 14.8232 13.3222C14.8779 13.3097 14.9311 13.294 14.9858 13.2844C16.1107 13.0839 17.3157 13.4132 18.1844 14.282C18.7323 14.8299 19.6192 14.8299 20.1655 14.282C20.7134 13.7341 20.7134 12.8472 20.1655 12.3008C19.273 11.4071 18.1775 10.8479 17.0273 10.593L17.027 7.42543C17.027 6.65205 16.3994 6.02441 15.626 6.02441C14.8526 6.02441 14.225 6.65205 14.225 7.42543V10.5861C14.0373 10.628 13.8606 10.6968 13.6799 10.7556C13.5116 10.8088 13.3393 10.8438 13.1754 10.9126C12.9694 10.998 12.7817 11.1159 12.5869 11.2222C12.4105 11.3176 12.2282 11.3961 12.0603 11.5093C11.8445 11.6535 11.6553 11.8302 11.4592 11.9997C11.3372 12.1048 11.2028 12.1873 11.0864 12.3036C11.0795 12.3105 11.078 12.319 11.0711 12.3262C9.91936 13.4876 9.20508 15.0834 9.20508 16.8445C9.20508 17.6179 9.83272 18.2455 10.606 18.2455H18.9601C18.7653 18.7065 18.4754 19.1143 18.1195 19.4545C17.9669 19.6003 17.8055 19.7347 17.636 19.8483C17.601 19.8736 17.5603 19.8902 17.5241 19.9127C17.3755 20.0053 17.2201 20.0866 17.0619 20.1566C17.0059 20.1804 16.9471 20.2013 16.8896 20.2239C16.7297 20.2827 16.5687 20.3302 16.4048 20.368C16.3614 20.3777 16.3179 20.3905 16.2732 20.3974C15.1439 20.6019 13.9362 20.2714 13.0661 19.4026C12.5182 18.8547 11.6313 18.8547 11.0837 19.4026C10.5374 19.9505 10.5374 20.8374 11.0837 21.3837C11.9762 22.2775 13.0717 22.8366 14.2219 23.0931V26.0269C14.2219 26.8015 14.8496 27.4279 15.6229 27.4279C16.3963 27.4279 17.024 26.8015 17.024 26.0269V23.1C17.1766 23.0663 17.3195 23.0075 17.468 22.9612C17.6726 22.8996 17.8815 22.8533 18.0816 22.7692C18.2555 22.6979 18.4109 22.5969 18.5776 22.5087C18.7849 22.4008 18.9979 22.3041 19.1955 22.1737C19.3707 22.0546 19.522 21.9088 19.6859 21.7731C19.8457 21.6427 20.0152 21.532 20.1637 21.3838C20.1706 21.3769 20.1734 21.3656 20.1806 21.3572C21.3308 20.1973 22.0438 18.6027 22.0438 16.843C22.0438 16.0683 21.4174 15.4407 20.6428 15.4407L20.6429 15.4406Z" fill="#111111"/>
</g>
<defs>
<clipPath id="clip0_1_51472">
<rect width="40" height="32" fill="white" transform="translate(0.328125 0.796875)"/>
</clipPath>
</defs>
</svg>
