<svg width="30" height="33" viewBox="0 0 30 33" fill="none" xmlns="http://www.w3.org/2000/svg">
<g clip-path="url(#clip0_1_51462)">
<path d="M27.6543 15.1877C26.8454 15.053 26.0703 15.6595 25.9356 16.4684C25.5984 18.8614 24.5201 21.0519 22.8014 22.7707C20.2401 25.332 16.7687 26.3769 13.4322 25.9048L11.4775 28.601C12.6233 28.9043 13.7691 29.0392 14.9152 29.0392C18.5214 29.0392 22.1611 27.6574 24.9247 24.894C27.1152 22.7034 28.497 19.9398 28.9353 16.8729C29.0698 16.0303 28.4632 15.2889 27.6543 15.1878V15.1877Z" fill="#111111"/>
<path d="M27.6544 2.48204C26.8119 2.48204 26.1379 3.15602 26.1379 3.99857V6.15549L24.9246 4.94221C19.3975 -0.584905 10.4664 -0.584905 4.9393 4.94221C1.29949 8.58204 0.0861562 13.7385 1.26561 18.423L3.86072 14.8507C3.89433 12.0198 4.97288 9.22243 7.09623 7.06551C11.4437 2.71807 18.4875 2.71807 22.8014 7.06551L24.0146 8.27878H21.8577C21.0152 8.27878 20.3412 8.95275 20.3412 9.79531C20.3412 10.6379 21.0152 11.3119 21.8577 11.3119H27.6545C28.497 11.3119 29.171 10.6379 29.171 9.79531V3.99857C29.171 3.15602 28.497 2.48204 27.6545 2.48204H27.6544Z" fill="#111111"/>
<path d="M14.8818 7.06549C14.0392 7.06549 13.3652 7.73947 13.3652 8.58202V14.918C13.3652 15.592 13.8034 16.1987 14.4774 16.3671L19.1283 17.6814C19.263 17.7151 19.398 17.7489 19.5327 17.7489C20.2067 17.7489 20.8134 17.3107 20.9817 16.6368C21.2178 15.8278 20.7457 14.9853 19.937 14.7831L16.3983 13.7722V8.58196C16.3983 7.73941 15.7243 7.06543 14.8817 7.06543L14.8818 7.06549Z" fill="#111111"/>
<path d="M11.4101 20.9172H8.81491L9.59 15.2215C9.72471 14.2443 8.47783 13.7725 7.9049 14.5476L0.658976 24.557C0.220778 25.1636 0.658976 26.04 1.40042 26.04H3.99553L3.22044 31.7357C3.08574 32.7129 4.33262 33.1848 4.90555 32.4097L12.1515 22.3665C12.6233 21.7597 12.1851 20.9172 11.4101 20.9172Z" fill="#111111"/>
</g>
<defs>
<clipPath id="clip0_1_51462">
<rect width="29" height="32" fill="white" transform="translate(0.484375 0.796875)"/>
</clipPath>
</defs>
</svg>
