<svg width="33" height="15" viewBox="0 0 33 15" fill="none" xmlns="http://www.w3.org/2000/svg">
<path d="M8.06149 14.9645C6.0871 14.9645 4.22944 14.2044 2.83092 12.8225C1.42719 11.4371 0.655108 9.59171 0.656251 7.63067C0.655135 5.66972 1.42719 3.82591 2.83092 2.43891C4.23051 1.05774 6.08903 0.296875 8.06534 0.296875H8.06785C10.0394 0.296875 11.8961 1.05774 13.297 2.43891L16.6563 5.75702C17.9192 4.51093 20.0156 2.44083 20.0156 2.44083C21.4139 1.05881 23.2708 0.297089 25.2446 0.297089H25.2468C29.3334 0.297368 32.6562 3.58784 32.6562 7.63075C32.6562 9.59313 31.8825 11.4369 30.4792 12.822C29.0809 14.204 27.2236 14.964 25.2474 14.964H25.2449C23.2733 14.964 21.4167 14.2039 20.013 12.8231L16.6549 9.50492C15.3932 10.751 13.2963 12.8214 13.2963 12.8214C11.8898 14.2034 10.0334 14.9634 8.06465 14.9634C8.06465 14.9646 8.06241 14.9646 8.06102 14.9646L8.06149 14.9645ZM18.5352 7.61369L21.8857 10.9248C22.7853 11.8093 23.9791 12.2976 25.2447 12.2976H25.2472C26.5168 12.2976 27.7111 11.8099 28.6063 10.9248C29.4974 10.0445 29.9891 8.87399 29.9891 7.63039C29.9891 5.05729 27.8619 2.96406 25.2458 2.96406C23.9774 2.96406 22.7849 3.45234 21.8873 4.33764C20.3465 5.85995 19.2878 6.90518 18.535 7.61361L18.5352 7.61369ZM8.0672 2.96406H8.06469C6.79346 2.96406 5.60094 3.45094 4.70558 4.33657C3.81242 5.21772 3.32277 6.38737 3.32277 7.63067C3.32277 8.87426 3.81246 10.0448 4.70558 10.9251C5.60123 11.8105 6.79403 12.2979 8.06247 12.2979H8.06359C9.32925 12.2979 10.5232 11.8096 11.4244 10.9226C12.9661 9.40135 14.0232 8.35612 14.776 7.64883L11.4228 4.33629C10.526 3.4507 9.33289 2.96406 8.06723 2.96406H8.0672Z" fill="black"/>
</svg>
