<svg width="33" height="34" viewBox="0 0 33 34" fill="none" xmlns="http://www.w3.org/2000/svg">
<g clip-path="url(#clip0_1_51480)">
<path d="M30.3706 15.191H18.9419V14.0482C18.9452 12.5507 19.5361 11.1142 20.5877 10.0481C21.6616 11.1369 23.1269 11.75 24.6562 11.75C26.1856 11.75 27.6509 11.137 28.7248 10.0481C29.5469 10.8811 30.0935 11.9461 30.2904 13.0997L32.5762 12.7112V12.7109C32.2724 10.9227 31.3698 9.29051 30.0163 8.08235C30.7003 6.32417 30.4721 4.34206 29.407 2.7849C28.342 1.22801 26.577 0.296875 24.6905 0.296875C22.8043 0.296875 21.0392 1.22801 19.9741 2.7849C18.909 4.34206 18.681 6.32417 19.365 8.08235C17.6518 9.59307 16.6663 11.7643 16.6562 14.0482C16.6552 11.7696 15.6823 9.59947 13.982 8.08235C14.6657 6.32417 14.4376 4.34206 13.3726 2.7849C12.3076 1.22801 10.5428 0.296875 8.65625 0.296875C6.76975 0.296875 5.00498 1.22801 3.93991 2.7849C2.87483 4.34206 2.64678 6.32417 3.33047 8.08235C1.63023 9.59941 0.65723 11.7696 0.65625 14.0482V15.1911C0.65625 15.7972 0.897066 16.3786 1.32564 16.8074C1.75446 17.236 2.33586 17.4768 2.94196 17.4768H4.08482V15.1911H2.94196V14.0482C2.94528 12.5507 3.5361 11.1143 4.58761 10.0482C5.66157 11.137 7.12691 11.75 8.65625 11.75C10.1856 11.75 11.6508 11.137 12.7248 10.0482C13.7764 11.1143 14.3673 12.5507 14.3706 14.0482V15.1911H5.22768V17.4768H14.3706C14.9767 17.4768 15.5581 17.236 15.9868 16.8074C16.4155 16.3786 16.6562 15.7972 16.6562 15.1911C16.6562 15.7972 16.897 16.3786 17.3256 16.8074C17.7544 17.236 18.3358 17.4768 18.9419 17.4768H30.3706C30.9767 17.4768 31.5581 17.236 31.9869 16.8074C32.4155 16.3786 32.6562 15.7972 32.6562 15.1911V14.0482H30.3706V15.191ZM24.6562 2.61955C25.5658 2.61955 26.4376 2.98079 27.0807 3.62365C27.7236 4.26676 28.0849 5.13867 28.0849 6.04813C28.0849 6.95758 27.7236 7.82948 27.0807 8.47262C26.4376 9.11549 25.5658 9.4767 24.6562 9.4767C23.7468 9.4767 22.875 9.11549 22.2318 8.47262C21.589 7.8295 21.2276 6.95758 21.2276 6.04813C21.2276 5.13867 21.589 4.26678 22.2318 3.62365C22.8749 2.98079 23.7468 2.61955 24.6562 2.61955ZM8.65626 9.4767C7.74681 9.4767 6.87491 9.11549 6.23177 8.47262C5.58891 7.8295 5.22769 6.95758 5.22769 6.04813C5.22769 5.13867 5.58891 4.26678 6.23177 3.62365C6.87489 2.98079 7.74681 2.61955 8.65626 2.61955C9.56572 2.61955 10.4376 2.98079 11.0808 3.62365C11.7236 4.26676 12.0849 5.13867 12.0849 6.04813C12.0849 6.95758 11.7236 7.82948 11.0808 8.47262C10.4376 9.11549 9.56572 9.4767 8.65626 9.4767Z" fill="#111111"/>
<path d="M22.371 27.7624V20.9053C22.371 20.2991 22.1302 19.7177 21.7016 19.2889C21.2728 18.8604 20.6914 18.6196 20.0853 18.6196H13.2282C12.622 18.6196 12.0406 18.8604 11.6118 19.2889C11.1833 19.7178 10.9424 20.2992 10.9424 20.9053V30.0481C10.9424 30.6542 11.1833 31.2357 11.6118 31.6645C12.0407 32.093 12.622 32.3338 13.2282 32.3338H20.0853C20.6914 32.3338 21.2728 32.093 21.7016 31.6645C22.1302 31.2356 22.371 30.6542 22.371 30.0481V28.9053H20.0853V30.0481H13.2282V20.9053H20.0853V27.7624H22.371Z" fill="#111111"/>
<path d="M14.3701 26.6196H18.9415V28.9053H14.3701V26.6196Z" fill="#111111"/>
<path d="M14.3701 23.1909H18.9415V25.4767H14.3701V23.1909Z" fill="#111111"/>
<path d="M6.37012 18.6196V25.4767C6.37012 25.7798 6.49054 26.0706 6.70482 26.2849C6.9191 26.4991 7.20992 26.6196 7.51298 26.6196H9.7987V24.3338H8.65584V18.6196H6.37012Z" fill="#111111"/>
<path d="M26.9423 25.4767V18.6196H24.6566V24.3338H23.5137V26.6196H25.7995C26.1025 26.6196 26.3933 26.4991 26.6076 26.2849C26.8219 26.0706 26.9423 25.7798 26.9423 25.4767Z" fill="#111111"/>
</g>
<defs>
<clipPath id="clip0_1_51480">
<rect width="32" height="33" fill="white" transform="translate(0.65625 0.296875)"/>
</clipPath>
</defs>
</svg>
