<svg width="33" height="29" viewBox="0 0 33 29" fill="none" xmlns="http://www.w3.org/2000/svg">
<path d="M23.5821 0.796875C20.2794 0.796875 18.1946 2.40424 16.9844 3.85756C15.7746 2.40418 13.69 0.796875 10.3861 0.796875C4.7622 0.796875 0.984375 6.00671 0.984375 10.8723C0.984375 17.9558 14.5901 27.4489 16.1415 28.5078C16.3956 28.681 16.69 28.7676 16.9844 28.7676C17.2788 28.7676 17.5733 28.6808 17.8273 28.5078C19.3786 27.4488 32.9844 17.9558 32.9844 10.8723C32.9844 6.00671 29.2061 0.796875 23.5821 0.796875ZM16.9838 25.45C11.626 21.6395 3.97466 14.8192 3.97466 10.8723C3.97466 7.90179 6.20277 3.78659 10.3861 3.78659C14.1915 3.78659 15.535 7.07298 15.5868 7.20333C15.8053 7.78058 16.3587 8.15825 16.9759 8.16338H16.9864C17.5997 8.16338 18.1531 7.78348 18.379 7.21339C18.4341 7.07322 19.7781 3.78681 23.5821 3.78681C27.7659 3.78681 29.9947 7.90133 29.9947 10.8726C29.9943 14.8147 22.3421 21.6371 16.9839 25.4503L16.9838 25.45Z" fill="#111111"/>
</svg>
