<svg width="33" height="33" viewBox="0 0 33 33" fill="none" xmlns="http://www.w3.org/2000/svg">
<path d="M32.3281 2.39688V10.0129C32.3281 10.5843 32.0231 11.1125 31.5281 11.3986C31.0331 11.6843 30.4231 11.6843 29.9281 11.3986C29.4331 11.1125 29.1281 10.5843 29.1281 10.0129V6.25293L20.6004 14.7968C20.3043 15.0579 19.9225 15.2 19.5282 15.1968C19.1029 15.1993 18.6943 15.0322 18.3921 14.7329C18.0893 14.4325 17.9189 14.0236 17.9189 13.5968C17.9189 13.17 18.0893 12.7611 18.3921 12.4607L26.8721 3.99685H23.1121C22.5407 3.99685 22.0125 3.69185 21.7264 3.19686C21.4407 2.70186 21.4407 2.09186 21.7264 1.59687C22.0125 1.10187 22.5407 0.796875 23.1121 0.796875H30.7281C31.1524 0.796875 31.5595 0.96545 31.8595 1.26544C32.1595 1.56544 32.3281 1.97259 32.3281 2.39688ZM12.0558 18.7972L3.5281 27.3411V23.5811C3.5281 23.0097 3.2231 22.4815 2.72811 22.1954C2.23311 21.9097 1.62311 21.9097 1.12812 22.1954C0.633119 22.4815 0.328125 23.0097 0.328125 23.5811V31.1971C0.328125 31.6214 0.4967 32.0285 0.796692 32.3285C1.09669 32.6285 1.50383 32.7971 1.92812 32.7971H9.54414C10.1156 32.7971 10.6437 32.4921 10.9298 31.9971C11.2155 31.5021 11.2155 30.8921 10.9298 30.3971C10.6437 29.9021 10.1155 29.5971 9.54414 29.5971H5.78417L14.328 21.0694C14.7337 20.6633 14.8923 20.0719 14.7437 19.5176C14.5951 18.9629 14.1623 18.5301 13.6076 18.3815C13.0533 18.2329 12.4619 18.3915 12.0558 18.7972Z" fill="#111111"/>
</svg>
